<svg version="1.2" xmlns="http://www.w3.org/2000/svg" viewBox="0 0 800 800" width="800" height="800">
	<title>New Project</title>
	<style>
		.s0 { fill: #ffffff } 
		.s1 { fill: #43dfd7 } 
	</style>
	<path id="Shape 1" class="s0" d="m83 183c0-55.2 44.8-100 100-100h433.5c55.2 0 100 44.8 100 100v433.5c0 55.2-44.8 100-100 100h-433.5c-55.2 0-100-44.8-100-100z"/>
	<path id="Shape 2" class="s1" d="m166.8 244.9c-1.6-33.1 24-61.2 57.1-62.8l330.9-15.3c33.1-1.6 61.2 24 62.7 57.1l15.4 330.9c1.5 33.1-24.1 61.2-57.2 62.7l-330.8 15.4c-33.1 1.5-61.2-24.1-62.8-57.2z"/>
	<path id="F" class="s0" aria-label="F"  d="m238.5 287.6q123-22.7 314.5-33.9 8.4 95.6 2.6 142.4-72.7 1.6-142.5 8.6l2.9 32.5q52-5.5 81.7-7 2.9 31.5-0.3 108.2-37.8 3.2-74.6 7 0.9 48.8 4.5 108.8-64.5 10.8-123.1 10.8-2.5-11.6-11.9-250.3l-46.4 5.8q-5.1-62.1-7.4-132.9z"/>
</svg>